<?xml version="1.0" encoding="utf-8"?>
<!-- Generator: Adobe Illustrator 16.0.0, SVG Export Plug-In . SVG Version: 6.00 Build 0)  -->
<!DOCTYPE svg PUBLIC "-//W3C//DTD SVG 1.1//EN" "http://www.w3.org/Graphics/SVG/1.1/DTD/svg11.dtd">
<svg version="1.1" id="레이어_1" xmlns="http://www.w3.org/2000/svg" xmlns:xlink="http://www.w3.org/1999/xlink" x="0px"
	 y="0px" width="1377.138px" height="537.844px" viewBox="0 0 1377.138 537.844" enable-background="new 0 0 1377.138 537.844"
	 xml:space="preserve">
<g>
	<path fill="#EC861A" d="M57.258,176.001c0,0,6.333,1.666,10.583-0.251c4.25-1.916,10.417-5.749,18.083-13.416
		s17.333-11.167,23.833-8.5s9.833,11.5,4.833,28.5s-15.833,47.833-25.417,74.417c-9.583,26.583-17.917,48.916-17.917,48.916
		s-8.833,23.833-8.25,51.25c0.583,27.416,10.583,58.416,48.25,72.75s73.833,5.834,104.25-15.999s55.083-57,69.75-96
		c14.666-39,22.5-64.167,26.666-79.583c4.167-15.417,4.667-21.084,4.667-21.084s8.5-16,13.917-34.667
		c5.416-18.667,7.75-40.001-4.584-50.667c-12.333-10.666-19.333-16-25.166-18.75c-5.834-2.75-10.501-2.917-18.168-3.25
		c-7.666-0.333-15.666,4.167-21.916,12.834c-6.25,8.666-10.75,21.5-11.417,37.833s3.833,30.167,4.5,49.584s-2.5,44.417-18.5,83.083
		s-30,59-41.75,69.416c-11.75,10.417-21.25,10.917-28.25,9.917s-14.833-3.5-19.583-11s-6.417-20-1.083-41s15.5-45.667,25.167-71.333
		c9.667-25.667,18.833-52.334,22.167-77.334s1.333-43.834-6.583-57c-7.917-13.167-21.75-20.667-42.083-23s-38.333,0.5-52.833,5.167
		s-25.5,11.167-31.833,16.167s-14,18-15.917,31.333S40.591,169.668,57.258,176.001z"/>
	<path fill="#EC861A" d="M363.258,423.667c0,0-9.944-1.037-20.292-8.014s-21.098-19.893-22.708-43.652
		c-1.333-19.668,2.271-29.881,5.281-39.029c3.011-9.147,5.427-17.23,1.719-32.637c-2.166-9.001,0.834-24.418,10.125-40.377
		c9.292-15.959,24.875-32.459,47.875-43.626c0,0,7.25-2.166,14.5-0.206c7.25,1.959,14.5,8.043,14.5,24.543
		c0,0,0.084,2.041-0.5,5.104c-0.583,3.062-1.833,7.146-4.5,11.229s-1.708,10.501,0.479,13.897c2.188,3.396,5.604,3.771,7.854-4.229
		c1.051-3.736,9.926-16.11,22.413-26.885c12.487-10.773,28.588-19.947,44.088-17.28c0,0,7.625,1.333,14.312,6.834
		c6.688,5.5,10.69,14.829,8.688,31.833c-0.498,10.996-2.908,18.995-6.168,29.16c-1.863,5.812-6.342,13.862-8.229,19.046
		c-5.188,14.249-10.104,25.457-12.771,29.957s-6.166,16.25-4.666,23.042c1.5,6.791,8,8.625,25.333-6.709s26.583-23.5,31.375-32.209
		c4.791-8.708,5.04-11.792,4.54-29.292c1.501-18.417,10.002-28.666,28.751-49.167c19.501-17.082,28.166-21.165,42.333-20.665
		s20,12.75,18.75,31.209c-1.251,18.458-9.585,43.125-23.751,68.458s-10.582,36.623-3.02,35.811
		c5.312,0.375,17.103-9.979,35.685-28.811c5.461-7.293,8.364-13.164,12.002-18.669c3.083-4.666,4.665-6.416,12.082-6.583
		c5.917,0.166,9.583,3.544,9.583,3.544s4.169,3.042,4.794,11.416c0.625,8.375-2.792,20.957-18.292,39.791S624.8,393.708,608.592,405
		c-16.209,11.292-33.167,18.5-46.002,18.671c-14.082,0.162-20.583-1.547-26.499-5.838c-5.917-4.292-9.835-12.662-10.501-23.829
		s-3.083-13.167-5.916-11.959c-2.834,1.209-6.084,5.626-8.417,7.292s-10.667,11.083-23.208,19.75
		c-12.542,8.666-29.292,16.583-48.459,15.25s-26.25-11.25-28.084-24.208c-1.833-12.958,1.584-28.958,3.417-42.458
		s7-23.75,10.875-32.375s6.458-15.625,3.125-22.625s-12.75-1.252-21.499,8.664c-8.75,9.915-16.833,23.996-17.5,33.663
		c-0.666,9.667-2.332,23.667-3.832,35.25s-2.834,20.75-2.834,20.75s0.167,6.001-2.25,11.835
		C378.592,418.668,373.592,424.335,363.258,423.667z"/>
	<path fill="#EC861A" d="M978.591,124.335c-29.666,3.334-148.834-14.499-166.834-20.499s-74.666-9.833-74.666-9.833
		c-11.973,0.127-38.668-0.5-65.668,17.834c-5.033,3.418-8.245,5.994-10.25,8.496c-8.748,10.917-21.583-5.666-21.583-5.666
		s-9.749-6.083-19.832-5.332c-18.136,1.351-21.667,26.833-21.667,26.833s-0.335,25.584,1.331,35.834
		c1.755,10.796,15,25,25.586,25.124c6.816,0.08,8.666,5.043,8.666,5.043s1.084,11.582,16.584,39.832s52.666,27.5,65.999,12.5
		s8.833-26-4-33s-23.666-26.502-23.666-26.502c-22.167-83.002,94.826-31.894,111.917-32.748c15-0.75,17.417,9.917,14.501,14.834
		c-1.028,1.733-13.446,17.789-17.251,37.166c-4.5,22.917-11.346,15.035-26.666,28.247c-13.332,11.497-0.834,29.253,0.166,36.253
		s-3.25,9-3.25,9s-38.75,22.25-76.75,59.25s-43.5,59-39,91s52.5,67,112.5,35s80.835-146,83.168-161.334s13.334-13.666,13.334-13.666
		s5.666,0.333,30.333,1s44.667-21.667,41.667-44.334s-27.667-11.333-27.667-11.333s-9.003,3.333-28.669,3.333s-12-23.666-12-23.666
		s5-19.667,8-33.667s15-6.333,15-6.333s28.333,11.334,67,4.334S1008.257,121.001,978.591,124.335z M769.008,346.251l-11,37
		c0,0-2.25,15.5-17.25,41c-14.942,25.402-29.999,6.251-29.999,6.251s-8.333-9.5-0.251-28.751
		c9.086-21.642,20.585-31.499,28.585-40.249c4.689-5.13,14.833-17,19.5-21.5c3.368-3.248,8-1.834,8-1.834
		C771.426,341.002,769.008,346.251,769.008,346.251z"/>
	<path fill="#EC861A" d="M1346.258,312.501c-10.5-14.75-20.5,3.75-20.5,3.75s-21.75,26-37.5,39s-28.75,7-32-4s-19-33.25,5.25-53.5
		s18.121-24.527,44.417-34.083c14.665-5.329,11.999-44.329-15-48.667c-16.509-2.652-23.333,8.999-30.333,17.666
		s-15,24.333-15,24.333s-2.333,8.334-8.333,8.334s-5.334-9.666-5.334-9.666s-13.999-52-39.499-51.333s-63.501,42.665-52.834,67.999
		c0,0,3.999,9,12.333,9s18.083,6.917,19.583,13.917c1.188,5.541,25.418,35.16-2.75,59c-32.513,27.517-12.833-28.916-12.833-28.916
		s6.999-24.613-19-25c-22.004-0.327-43.338,36.34-43.338,36.34s-4.329,5.995-10.329-2.005s2.329-17.995,2.329-17.995
		s7.67-22.67,7.67-40.004s-5.334-31-11.667-40.667s-19-7-19-7s-12.331,5.661-16.332-3.003c0,0-28-26.5-74,15.5s-47.5,124-43,135.5
		s8.99,45.246,58.5,45.5c33.831,0.174,57.5-28,57.5-28s10.5-18.5,28-15.5c0,0,17.5,2,18.5,11.75s5.992,37.382,40,35.25
		c26.499-1.661,45.499-30.328,45.499-30.328s8.251-15.672,16.501-14.922s7.75,4.75,9.5,15.75s10,28.25,38,27.5s79.772-48.21,91-65.5
		C1332.258,358.501,1356.758,327.251,1346.258,312.501z M1033.258,343.251c-2.516,10.38-9.75,22.75-27,22.75s-14.25-36-14.25-36
		s2.125-23.5,9.375-33.375s17.25-28.125,17.25-28.125s4.875-3.375,5.875-6.875c1.666-5.83,6.5-5.375,6.5-5.375
		s5.168,0.666,1.084,17.583c-2.86,11.85-3.667,41.832-0.334,49.499C1032.976,326.134,1035.258,335,1033.258,343.251z"/>
</g>
<path fill="#FFFFFF" d="M84.508,122.502c-6.5-4.5-2.75-10-2.75-10s3.25-1.25,3.5-5.75c0.086-1.554-1.02-4.27-2.505-7.16
	c-10.731,4.264-18.996,9.335-24.158,13.41c-6.333,5-14,18-15.917,31.333s-2.083,25.334,14.584,31.667c0,0,6.333,1.666,10.583-0.251
	c4.25-1.916,10.417-5.749,18.083-13.416c2.195-2.195,4.556-4.035,6.958-5.501C97.693,126.09,90.757,126.828,84.508,122.502z"/>
<path fill="#FFFFFF" d="M643.416,335.042c10.658,10.262-2.857,20.151,13.666,23.415c14.088-17.703,17.24-29.678,16.639-37.745
	c-0.625-8.374-4.793-11.416-4.793-11.416s-3.666-3.378-9.584-3.544c-7.416,0.167-8.998,1.917-12.082,6.583
	c-1.697,2.568-3.236,5.219-4.947,8.054C640.371,326.412,640.109,331.86,643.416,335.042z"/>
<path fill="#FFFFFF" d="M371.592,371.998c-5.332,0-7.333,3.333-7.333,3.333s0.333,6-8.667,6s-9.666-6-9.666-6s-3-10.333-11-11
	c-3.881-0.323-9.639,4.294-14.545,9.134c1.945,22.825,12.457,35.358,22.59,42.189c10.348,6.977,20.292,8.014,20.292,8.014
	c10.334,0.668,15.334-4.999,17.75-10.834c2.417-5.834,2.25-11.835,2.25-11.835s0.926-6.366,2.102-15.182
	C381.184,377.973,375.857,371.998,371.592,371.998z"/>
<path fill="#FFFFFF" d="M672.258,198.67c1.334,17,0,18.333-17.666,5c-10.969-8.277-13.971,5.671-14.67,17.439
	c2.41,5.585,5.734,12.497,10.342,20.893c15.5,28.25,52.666,27.5,65.998,12.5c13.334-15,8.834-26-4-33
	c-12.832-7-23.666-26.502-23.666-26.502c-0.994-3.728-1.699-7.175-2.156-10.378C679.479,185.651,671.494,188.933,672.258,198.67z"/>
<path fill="#FFFFFF" d="M1346.264,312.502c-10.5-14.75-20.5,3.75-20.5,3.75s-4.047,4.836-9.906,11.374
	c1.117,14.647,4.846,29.89,15.244,32.571c0.426-0.593,0.812-1.158,1.162-1.695C1332.264,358.502,1356.764,327.252,1346.264,312.502z
	"/>
<path fill="#FFFFFF" d="M1032.098,273.835c-0.701,2.899-1.275,6.887-1.699,11.364c2.541,1.756,5.912,3.279,9.861,3.133
	c9-0.333,6.4-7.506,22.334-9c10.666-1,3-19.333,17.666-16.667c8.033,1.46,10.365,5.415,12.695,7.002
	c-1.205-14.042-5.906-25.339-11.359-33.662c-6.334-9.667-19-7-19-7s-9.172,4.204-14.26-0.198
	c-7.193,9.159-11.934,22.368-14.748,32.432C1033.83,263.844,1033.553,267.803,1032.098,273.835z"/>
</svg>
